<svg width="20" height="18" viewBox="0 0 20 18" fill="none" xmlns="http://www.w3.org/2000/svg">
<path fill-rule="evenodd" clip-rule="evenodd" d="M14.9818 6.15384L19.7123 3.98608L15.4818 0.981799L14.9818 6.15384ZM2.05821 9.86185C2.17126 8.69214 2.64355 7.19871 4.29362 6.143C5.99126 5.05686 9.11961 4.31124 14.8393 5.15251L15.1368 3.17441C9.20876 2.3025 5.5061 2.99669 3.21878 4.46011C0.883891 5.95396 0.217265 8.11983 0.0668678 9.67591L2.05821 9.86185Z" fill="#F3F4F6"/>
<path fill-rule="evenodd" clip-rule="evenodd" d="M4.77018 12.6225L0.147176 15.0036L4.51401 17.8124L4.77018 12.6225ZM17.7053 8.2046C17.6475 9.37694 17.2462 10.889 15.6473 12.0178C14.0021 13.1794 10.9112 14.066 5.15662 13.4862L4.95261 15.4759C10.9164 16.0768 14.5828 15.2155 16.7991 13.6507C19.0618 12.0532 19.6261 9.86042 19.7031 8.29966L17.7053 8.2046Z" fill="#F3F4F6"/>
</svg>
