<svg width="20" height="14" viewBox="0 0 20 14" fill="none" xmlns="http://www.w3.org/2000/svg">
<path fill-rule="evenodd" clip-rule="evenodd" d="M10.7455 9.92659C11.387 10.6758 12.1055 11.3884 12.9479 11.9925C14.6985 13.2479 16.9205 13.9962 19.9895 13.8395L19.8875 11.8421C17.2355 11.9775 15.4679 11.3386 14.1134 10.3672C13.2956 9.7808 12.6064 9.05966 11.9542 8.25167C11.9075 8.31706 11.8604 8.38314 11.8128 8.44991L11.6626 8.66126C11.3781 9.06168 11.0743 9.4893 10.7455 9.92659ZM8.82664 4.06228C8.21142 3.32317 7.52916 2.61903 6.73657 2.02168C5.06201 0.759616 2.94536 0.00268149 0.0117188 0.160772L0.119341 2.15787C2.60561 2.02389 4.25278 2.65414 5.53282 3.61887C6.3111 4.20543 6.97098 4.92585 7.6074 5.7357C7.65104 5.67448 7.69509 5.61262 7.73958 5.55012L7.75825 5.5239C8.08549 5.06423 8.43833 4.56859 8.82664 4.06228Z" fill="#F3F4F6"/>
<path d="M0.0644531 12.8408C10.9043 13.4249 8.49542 0.575078 19.9375 1.15936" stroke="#F3F4F6" stroke-width="2"/>
</svg>
